<svg width="32" height="32" viewBox="0 0 32 32" fill="none" xmlns="http://www.w3.org/2000/svg">
<path d="M25.1333 15.6667H21.5333C17.9866 15.6667 16.3333 14.0134 16.3333 10.4667V6.86668C16.3333 3.32001 17.9866 1.66669 21.5333 1.66669H25.1333C28.6799 1.66669 30.3333 3.32001 30.3333 6.86668V10.4667C30.3333 14.0134 28.6799 15.6667 25.1333 15.6667ZM21.5333 3.66669C19.0799 3.66669 18.3333 4.41335 18.3333 6.86668V10.4667C18.3333 12.92 19.0799 13.6667 21.5333 13.6667H25.1333C27.5866 13.6667 28.3333 12.92 28.3333 10.4667V6.86668C28.3333 4.41335 27.5866 3.66669 25.1333 3.66669H21.5333Z" fill="#EAEAEA"/>
<path d="M10.4667 30.3333H6.86675C3.32008 30.3333 1.66675 28.68 1.66675 25.1333V21.5333C1.66675 17.9866 3.32008 16.3333 6.86675 16.3333H10.4667C14.0134 16.3333 15.6667 17.9866 15.6667 21.5333V25.1333C15.6667 28.68 14.0134 30.3333 10.4667 30.3333ZM6.86675 18.3333C4.41342 18.3333 3.66675 19.08 3.66675 21.5333V25.1333C3.66675 27.5867 4.41342 28.3333 6.86675 28.3333H10.4667C12.9201 28.3333 13.6667 27.5867 13.6667 25.1333V21.5333C13.6667 19.08 12.9201 18.3333 10.4667 18.3333H6.86675Z" fill="#EAEAEA"/>
<path d="M18.1602 24.1733H14.6669C14.1202 24.1733 13.6669 23.72 13.6669 23.1733V21.5333C13.6669 19.08 12.9202 18.3333 10.4669 18.3333H8.8269C8.28024 18.3333 7.8269 17.88 7.8269 17.3333V13.84C7.8269 9.68001 9.68023 7.82666 13.8402 7.82666H17.3336C17.8802 7.82666 18.3336 8.27999 18.3336 8.82666V10.4667C18.3336 12.92 19.0802 13.6667 21.5336 13.6667H23.1736C23.7202 13.6667 24.1736 14.12 24.1736 14.6667V18.16C24.1736 22.32 22.3202 24.1733 18.1602 24.1733ZM15.6669 22.1733H18.1602C21.2002 22.1733 22.1736 21.2 22.1736 18.16V15.6667H21.5336C17.9869 15.6667 16.3336 14.0133 16.3336 10.4667V9.82666H13.8402C10.8002 9.82666 9.8269 10.8 9.8269 13.84V16.3333H10.4669C14.0136 16.3333 15.6669 17.9867 15.6669 21.5333V22.1733Z" fill="#EAEAEA"/>
</svg>
