<svg width="32" height="32" viewBox="0 0 32 32" fill="none" xmlns="http://www.w3.org/2000/svg">
<path d="M3.99992 13C1.97325 13 0.333252 11.36 0.333252 9.33335C0.333252 7.30669 1.97325 5.66669 3.99992 5.66669C6.02658 5.66669 7.66658 7.30669 7.66658 9.33335C7.66658 11.36 6.02658 13 3.99992 13ZM3.99992 7.66669C3.07992 7.66669 2.33325 8.41335 2.33325 9.33335C2.33325 10.2534 3.07992 11 3.99992 11C4.91992 11 5.66658 10.2534 5.66658 9.33335C5.66658 8.41335 4.91992 7.66669 3.99992 7.66669Z" fill="currentColor"/>
<path d="M27.9999 13C25.9733 13 24.3333 11.36 24.3333 9.33335C24.3333 7.30669 25.9733 5.66669 27.9999 5.66669C30.0266 5.66669 31.6666 7.30669 31.6666 9.33335C31.6666 11.36 30.0266 13 27.9999 13ZM27.9999 7.66669C27.0799 7.66669 26.3333 8.41335 26.3333 9.33335C26.3333 10.2534 27.0799 11 27.9999 11C28.9199 11 29.6666 10.2534 29.6666 9.33335C29.6666 8.41335 28.9199 7.66669 27.9999 7.66669Z" fill="currentColor"/>
<path d="M25.3333 10.3333H20C19.4533 10.3333 19 9.87998 19 9.33331C19 8.78665 19.4533 8.33331 20 8.33331H25.3333C25.88 8.33331 26.3333 8.78665 26.3333 9.33331C26.3333 9.87998 25.88 10.3333 25.3333 10.3333Z" fill="currentColor"/>
<path d="M12.0001 10.3333H6.66675C6.12008 10.3333 5.66675 9.87998 5.66675 9.33331C5.66675 8.78665 6.12008 8.33331 6.66675 8.33331H12.0001C12.5467 8.33331 13.0001 8.78665 13.0001 9.33331C13.0001 9.87998 12.5467 10.3333 12.0001 10.3333Z" fill="currentColor"/>
<path d="M7.99992 27.6667H5.33325C3.67992 27.6667 2.33325 26.32 2.33325 24.6667V22C2.33325 20.3467 3.67992 19 5.33325 19H7.99992C9.65325 19 10.9999 20.3467 10.9999 22V24.6667C10.9999 25.8667 10.2933 26.9334 9.19992 27.4001C8.83992 27.5734 8.42659 27.6667 7.99992 27.6667ZM5.33325 21C4.78659 21 4.33325 21.4533 4.33325 22V24.6667C4.33325 25.2133 4.78659 25.6667 5.33325 25.6667H7.99992C8.13325 25.6667 8.25325 25.6401 8.38659 25.5734C8.77325 25.4134 8.99992 25.0533 8.99992 24.6667V22C8.99992 21.4533 8.54659 21 7.99992 21H5.33325Z" fill="currentColor"/>
<path d="M26.6667 27.6667H24C23.5733 27.6667 23.16 27.5734 22.76 27.3867C21.7067 26.9467 21 25.8667 21 24.6667V22C21 20.3467 22.3467 19 24 19H26.6667C28.32 19 29.6667 20.3467 29.6667 22V24.6667C29.6667 26.32 28.32 27.6667 26.6667 27.6667ZM24 21C23.4533 21 23 21.4533 23 22V24.6667C23 25.0533 23.2267 25.4134 23.5733 25.5601C23.7467 25.6401 23.8667 25.6667 24 25.6667H26.6667C27.2133 25.6667 27.6667 25.2133 27.6667 24.6667V22C27.6667 21.4533 27.2133 21 26.6667 21H24Z" fill="currentColor"/>
<path d="M18 14.3333H14C12.3467 14.3333 11 12.9866 11 11.3333V7.33331C11 5.67998 12.3467 4.33331 14 4.33331H18C19.6533 4.33331 21 5.67998 21 7.33331V11.3333C21 12.9866 19.6533 14.3333 18 14.3333ZM14 6.33331C13.4533 6.33331 13 6.78665 13 7.33331V11.3333C13 11.88 13.4533 12.3333 14 12.3333H18C18.5467 12.3333 19 11.88 19 11.3333V7.33331C19 6.78665 18.5467 6.33331 18 6.33331H14Z" fill="currentColor"/>
<path d="M25.2931 21C25.2531 21 25.2131 21 25.1731 21C24.6264 20.9333 24.2264 20.44 24.2931 19.8934C24.3198 19.7067 24.3198 19.5333 24.3198 19.3467C24.3198 15.88 22.4398 12.6799 19.5331 11.2133C19.0398 10.9599 18.8398 10.36 19.0931 9.86668C19.3464 9.37335 19.9464 9.17333 20.4398 9.42666C24.0131 11.24 26.3198 15.1333 26.3198 19.3467C26.3198 19.6133 26.3064 19.8666 26.2664 20.1333C26.2264 20.6266 25.7998 21 25.2931 21Z" fill="currentColor"/>
<path d="M6.70675 21C6.20008 21 5.77341 20.6266 5.72008 20.12C5.69341 19.8533 5.66675 19.6 5.66675 19.3334C5.66675 15.12 7.97341 11.2267 11.5467 9.41335C12.0401 9.16002 12.6401 9.36004 12.8934 9.85338C13.1467 10.3467 12.9467 10.9467 12.4534 11.2001C9.54675 12.6667 7.66675 15.8667 7.66675 19.3334C7.66675 19.52 7.68008 19.6934 7.69341 19.8801C7.76008 20.4267 7.36008 20.92 6.81341 20.9867C6.78675 21 6.74675 21 6.70675 21Z" fill="currentColor"/>
</svg>
