<svg width="32" height="32" viewBox="0 0 32 32" fill="none" xmlns="http://www.w3.org/2000/svg">
<path d="M12.9999 24.2267H7.94659C2.87992 24.2267 1.33325 22.68 1.33325 17.6133V9.61333C1.33325 4.54667 2.87992 3 7.94659 3H21.9866C27.0533 3 28.5999 4.54667 28.5999 9.61333C28.5999 10.16 28.1466 10.6133 27.5999 10.6133C27.0533 10.6133 26.5999 10.16 26.5999 9.61333C26.5999 5.69333 25.9066 5 21.9866 5H7.94659C4.02659 5 3.33325 5.69333 3.33325 9.61333V17.6133C3.33325 21.5333 4.02659 22.2267 7.94659 22.2267H12.9999C13.5466 22.2267 13.9999 22.68 13.9999 23.2267C13.9999 23.7733 13.5466 24.2267 12.9999 24.2267Z" fill="#EAEAEA"/>
<path d="M12.9999 18.8933H2.33325C1.78659 18.8933 1.33325 18.44 1.33325 17.8933C1.33325 17.3466 1.78659 16.8933 2.33325 16.8933H12.9999C13.5466 16.8933 13.9999 17.3466 13.9999 17.8933C13.9999 18.44 13.5466 18.8933 12.9999 18.8933Z" fill="#EAEAEA"/>
<path d="M25.0334 29.7067H21.6734C20.74 29.7067 19.9 29.3067 19.34 28.6267C18.8467 28.0133 18.66 27.2267 18.8334 26.48L19.38 24.0668C19.4867 23.6134 19.8867 23.2933 20.3534 23.2933H26.3534C26.82 23.2933 27.2201 23.6134 27.3267 24.0668L27.8734 26.48C28.0467 27.28 27.8867 28.0534 27.3934 28.6667C26.8467 29.32 25.9934 29.7067 25.0334 29.7067ZM21.1534 25.2668L20.7801 26.9068C20.7401 27.1068 20.82 27.2667 20.9 27.3601C21.0734 27.5734 21.3534 27.6934 21.6734 27.6934H25.0334C25.3801 27.6934 25.6734 27.5868 25.8334 27.3868C25.94 27.2534 25.9667 27.0934 25.9267 26.8934L25.5534 25.2535H21.1534V25.2668Z" fill="#EAEAEA"/>
<path d="M26.3539 25.2668C26.0739 25.2668 25.8072 25.1601 25.6072 24.9334C25.2472 24.5201 25.2739 23.8934 25.6872 23.52L27.9939 21.4666C28.9139 20.6533 28.8739 20.4534 28.1939 19.6001L24.1272 14.44C23.9005 14.16 23.6339 14 23.3539 14C23.0739 14 22.8072 14.16 22.5805 14.44L18.5139 19.6001C17.7939 20.5201 17.8072 20.7201 18.6872 21.4401L21.0205 23.52C21.4339 23.88 21.4739 24.5201 21.1005 24.9334C20.7272 25.3468 20.1005 25.3867 19.6872 25.0133L17.3805 22.96C15.7005 21.5866 15.5539 20.12 16.9405 18.36L21.0072 13.2C21.6072 12.44 22.4605 12 23.3539 12C24.2472 12 25.1005 12.44 25.7005 13.2L29.7672 18.36C31.1405 20.0934 31.0072 21.48 29.3272 22.96L27.0205 25.0133C26.8205 25.1867 26.5805 25.2668 26.3539 25.2668Z" fill="#EAEAEA"/>
<path d="M23.3535 17.9067C22.8068 17.9067 22.3535 17.4534 22.3535 16.9067V13.5333C22.3535 12.9867 22.8068 12.5333 23.3535 12.5333C23.9002 12.5333 24.3535 12.9867 24.3535 13.5333V16.9067C24.3535 17.4667 23.9002 17.9067 23.3535 17.9067Z" fill="#EAEAEA"/>
</svg>
