<svg width="128" height="128" viewBox="0 0 128 128" fill="none" xmlns="http://www.w3.org/2000/svg">
<path d="M128 47.3449C128 47.9535 127.759 48.5373 127.329 48.9681L96.6957 79.7047H66.8577C65.0282 79.7047 63.2738 80.4333 61.9816 81.7298L28.4989 115.325C28.0682 115.757 27.4834 116 26.8735 116H2.29596C1.02794 116 0 114.971 0 113.702V80.6551C0 80.0465 0.241167 79.4627 0.670595 79.0319L31.3043 48.2953H61.1423C62.9718 48.2953 64.7262 47.5667 66.0184 46.2701L99.5011 12.6751C99.9318 12.2429 100.517 12 101.126 12H125.704C126.972 12 128 13.029 128 14.2983V47.3449Z" fill="#EAEAEA"/>
<path d="M128 113.702C128 114.971 126.972 116 125.704 116H78.1221C76.854 116 75.8261 114.971 75.8261 113.702V102.735C75.8261 101.842 76.1725 100.983 76.7924 100.34L96.6957 79.7047H125.704C126.972 79.7047 128 80.7337 128 82.003V113.702Z" fill="#EAEAEA"/>
<path d="M52.1739 25.265C52.1739 26.1584 51.8275 27.0169 51.2076 27.6596L31.3043 48.2953H2.29596C1.02794 48.2953 0 47.2663 0 45.997V14.2983C0 13.029 1.02794 12 2.29596 12H49.8779C51.146 12 52.1739 13.029 52.1739 14.2983V25.265Z" fill="#EAEAEA"/>
</svg>
