<svg width="128" height="128" viewBox="0 0 128 128" fill="none" xmlns="http://www.w3.org/2000/svg">
<rect width="128" height="128" transform="matrix(-1 0 0 1 128 0)" fill="#0078AF"/>
<path d="M18.9919 52.1624C18.9919 52.5903 19.1611 53.0006 19.4622 53.3035L40.9432 74.9094H61.8661C63.149 74.9094 64.3792 75.4216 65.2853 76.333L88.7641 99.9483C89.0661 100.252 89.4762 100.423 89.9038 100.423H107.138C108.027 100.423 108.748 99.6995 108.748 98.8072V75.5775C108.748 75.1497 108.579 74.7393 108.278 74.4365L86.7968 52.8305H65.8739C64.591 52.8305 63.3608 52.3184 62.4547 51.407L38.9759 27.7917C38.6739 27.4879 38.2638 27.3171 37.8362 27.3171H20.6019C19.7128 27.3171 18.9919 28.0405 18.9919 28.9327V52.1624Z" fill="#EAEAEA"/>
<path d="M18.9919 98.8072C18.9919 99.6995 19.7128 100.423 20.6019 100.423H53.9673C54.8565 100.423 55.5773 99.6995 55.5773 98.8072V91.0983C55.5773 90.4703 55.3344 89.8668 54.8997 89.4151L40.9432 74.9094H20.6019C19.7128 74.9094 18.9919 75.6328 18.9919 76.525V98.8072Z" fill="#EAEAEA"/>
<path d="M72.1627 36.6416C72.1627 37.2696 72.4056 37.8731 72.8403 38.3249L86.7968 52.8305H107.138C108.027 52.8305 108.748 52.1072 108.748 51.2149V28.9327C108.748 28.0405 108.027 27.3171 107.138 27.3171H73.7727C72.8835 27.3171 72.1627 28.0405 72.1627 28.9327V36.6416Z" fill="#EAEAEA"/>
</svg>
