<svg width="128" height="128" viewBox="0 0 128 128" fill="none" xmlns="http://www.w3.org/2000/svg">
<rect width="128" height="128" fill="#0078AF"/>
<path d="M109.008 52.1624C109.008 52.5903 108.839 53.0006 108.538 53.3035L87.0568 74.9094H66.1339C64.851 74.9094 63.6208 75.4216 62.7147 76.333L39.2359 99.9483C38.9339 100.252 38.5238 100.423 38.0962 100.423H20.8619C19.9728 100.423 19.252 99.6995 19.252 98.8072V75.5775C19.252 75.1497 19.4211 74.7393 19.7222 74.4365L41.2032 52.8305H62.1261C63.409 52.8305 64.6392 52.3184 65.5453 51.407L89.0241 27.7917C89.3261 27.4879 89.7362 27.3171 90.1638 27.3171H107.398C108.287 27.3171 109.008 28.0405 109.008 28.9327V52.1624Z" fill="#EAEAEA"/>
<path d="M109.008 98.8072C109.008 99.6995 108.287 100.423 107.398 100.423H74.0327C73.1435 100.423 72.4227 99.6995 72.4227 98.8072V91.0983C72.4227 90.4703 72.6656 89.8668 73.1003 89.4151L87.0568 74.9094H107.398C108.287 74.9094 109.008 75.6328 109.008 76.525V98.8072Z" fill="#EAEAEA"/>
<path d="M55.8373 36.6416C55.8373 37.2696 55.5944 37.8731 55.1597 38.3249L41.2032 52.8305H20.8619C19.9728 52.8305 19.252 52.1072 19.252 51.2149V28.9327C19.252 28.0405 19.9728 27.3171 20.8619 27.3171H54.2273C55.1165 27.3171 55.8373 28.0405 55.8373 28.9327V36.6416Z" fill="#EAEAEA"/>
</svg>
