<svg width="116" height="48" viewBox="0 0 116 48" fill="none" xmlns="http://www.w3.org/2000/svg">
<path d="M2.36444 31.45V16.55H5.08444V23.05H11.4244V16.55H14.1644V31.45H11.4244V25.45H5.08444V31.45H2.36444Z" fill="#EAEAEA"/>
<path d="M20.1124 31.69C19.3524 31.69 18.6924 31.5633 18.1324 31.31C17.5724 31.0567 17.1391 30.6967 16.8324 30.23C16.5257 29.75 16.3724 29.1967 16.3724 28.57C16.3724 27.97 16.5057 27.4367 16.7724 26.97C17.0391 26.49 17.4524 26.09 18.0124 25.77C18.5724 25.45 19.2791 25.2233 20.1324 25.09L23.6924 24.51V26.51L20.6324 27.03C20.1124 27.1233 19.7257 27.29 19.4724 27.53C19.2191 27.77 19.0924 28.0833 19.0924 28.47C19.0924 28.8433 19.2324 29.1433 19.5124 29.37C19.8057 29.5833 20.1657 29.69 20.5924 29.69C21.1391 29.69 21.6191 29.5767 22.0324 29.35C22.4591 29.11 22.7857 28.7833 23.0124 28.37C23.2524 27.9567 23.3724 27.5033 23.3724 27.01V24.21C23.3724 23.7433 23.1857 23.3567 22.8124 23.05C22.4524 22.73 21.9724 22.57 21.3724 22.57C20.8124 22.57 20.3124 22.7233 19.8724 23.03C19.4457 23.3233 19.1324 23.7167 18.9324 24.21L16.7924 23.17C17.0057 22.5967 17.3391 22.1033 17.7924 21.69C18.2591 21.2633 18.8057 20.93 19.4324 20.69C20.0591 20.45 20.7391 20.33 21.4724 20.33C22.3657 20.33 23.1524 20.4967 23.8324 20.83C24.5124 21.15 25.0391 21.6033 25.4124 22.19C25.7991 22.7633 25.9924 23.4367 25.9924 24.21V31.45H23.5124V29.59L24.0724 29.55C23.7924 30.0167 23.4591 30.41 23.0724 30.73C22.6857 31.0367 22.2457 31.2767 21.7524 31.45C21.2591 31.61 20.7124 31.69 20.1124 31.69Z" fill="#EAEAEA"/>
<path d="M34.354 31.69C33.5673 31.69 32.8406 31.5367 32.174 31.23C31.5206 30.91 31.0006 30.4567 30.614 29.87L30.874 29.35V31.45H28.414V16.31H31.034V22.73L30.634 22.19C31.0073 21.6033 31.514 21.15 32.154 20.83C32.794 20.4967 33.534 20.33 34.374 20.33C35.4006 20.33 36.3273 20.5833 37.154 21.09C37.9806 21.5967 38.634 22.2767 39.114 23.13C39.6073 23.9833 39.854 24.9433 39.854 26.01C39.854 27.0633 39.614 28.0233 39.134 28.89C38.654 29.7567 38.0006 30.4433 37.174 30.95C36.3473 31.4433 35.4073 31.69 34.354 31.69ZM34.054 29.29C34.654 29.29 35.1873 29.15 35.654 28.87C36.1206 28.59 36.4806 28.2033 36.734 27.71C37.0006 27.2167 37.134 26.65 37.134 26.01C37.134 25.37 37.0006 24.81 36.734 24.33C36.4806 23.8367 36.1206 23.45 35.654 23.17C35.1873 22.8767 34.654 22.73 34.054 22.73C33.4806 22.73 32.9606 22.87 32.494 23.15C32.0406 23.43 31.6806 23.8233 31.414 24.33C31.1606 24.8233 31.034 25.3833 31.034 26.01C31.034 26.65 31.1606 27.2167 31.414 27.71C31.6806 28.2033 32.0406 28.59 32.494 28.87C32.9606 29.15 33.4806 29.29 34.054 29.29Z" fill="#EAEAEA"/>
<path d="M41.8515 31.45V20.57H44.4715V31.45H41.8515ZM41.8515 19.35V16.55H44.4715V19.35H41.8515Z" fill="#EAEAEA"/>
<path d="M52.8305 31.69C52.0439 31.69 51.3172 31.5367 50.6505 31.23C49.9972 30.91 49.4772 30.4567 49.0905 29.87L49.3505 29.35V31.45H46.8905V16.31H49.5105V22.73L49.1105 22.19C49.4839 21.6033 49.9905 21.15 50.6305 20.83C51.2705 20.4967 52.0105 20.33 52.8505 20.33C53.8772 20.33 54.8039 20.5833 55.6305 21.09C56.4572 21.5967 57.1105 22.2767 57.5905 23.13C58.0839 23.9833 58.3305 24.9433 58.3305 26.01C58.3305 27.0633 58.0905 28.0233 57.6105 28.89C57.1305 29.7567 56.4772 30.4433 55.6505 30.95C54.8239 31.4433 53.8839 31.69 52.8305 31.69ZM52.5305 29.29C53.1305 29.29 53.6639 29.15 54.1305 28.87C54.5972 28.59 54.9572 28.2033 55.2105 27.71C55.4772 27.2167 55.6105 26.65 55.6105 26.01C55.6105 25.37 55.4772 24.81 55.2105 24.33C54.9572 23.8367 54.5972 23.45 54.1305 23.17C53.6639 22.8767 53.1305 22.73 52.5305 22.73C51.9572 22.73 51.4372 22.87 50.9705 23.15C50.5172 23.43 50.1572 23.8233 49.8905 24.33C49.6372 24.8233 49.5105 25.3833 49.5105 26.01C49.5105 26.65 49.6372 27.2167 49.8905 27.71C50.1572 28.2033 50.5172 28.59 50.9705 28.87C51.4372 29.15 51.9572 29.29 52.5305 29.29Z" fill="#EAEAEA"/>
<path d="M60.328 31.45V20.57H62.788V23.09L62.508 22.67C62.708 21.8833 63.108 21.2967 63.708 20.91C64.308 20.5233 65.0147 20.33 65.828 20.33C66.7214 20.33 67.508 20.5633 68.188 21.03C68.868 21.4967 69.308 22.11 69.508 22.87L68.768 22.93C69.1014 22.0633 69.6014 21.4167 70.268 20.99C70.9347 20.55 71.7014 20.33 72.568 20.33C73.3414 20.33 74.028 20.5033 74.628 20.85C75.2414 21.1967 75.7214 21.6833 76.068 22.31C76.4147 22.9233 76.588 23.6367 76.588 24.45V31.45H73.968V25.07C73.968 24.59 73.8814 24.1767 73.708 23.83C73.5347 23.4833 73.2947 23.2167 72.988 23.03C72.6814 22.83 72.308 22.73 71.868 22.73C71.4547 22.73 71.088 22.83 70.768 23.03C70.448 23.2167 70.2014 23.4833 70.028 23.83C69.8547 24.1767 69.768 24.59 69.768 25.07V31.45H67.148V25.07C67.148 24.59 67.0614 24.1767 66.888 23.83C66.7147 23.4833 66.468 23.2167 66.148 23.03C65.8414 22.83 65.4747 22.73 65.048 22.73C64.6347 22.73 64.268 22.83 63.948 23.03C63.628 23.2167 63.3814 23.4833 63.208 23.83C63.0347 24.1767 62.948 24.59 62.948 25.07V31.45H60.328Z" fill="#EAEAEA"/>
<path d="M82.6846 31.69C81.8446 31.69 81.1113 31.5033 80.4846 31.13C79.8713 30.7567 79.3979 30.2367 79.0646 29.57C78.7446 28.9033 78.5846 28.1233 78.5846 27.23V20.57H81.2046V27.01C81.2046 27.4633 81.2913 27.8633 81.4646 28.21C81.6513 28.5433 81.9113 28.81 82.2446 29.01C82.5913 29.1967 82.9779 29.29 83.4046 29.29C83.8313 29.29 84.2113 29.1967 84.5446 29.01C84.8779 28.81 85.1379 28.5367 85.3246 28.19C85.5113 27.8433 85.6046 27.43 85.6046 26.95V20.57H88.2246V31.45H85.7446V29.31L85.9646 29.69C85.7113 30.3567 85.2913 30.8567 84.7046 31.19C84.1313 31.5233 83.4579 31.69 82.6846 31.69Z" fill="#EAEAEA"/>
<path d="M90.6601 31.45V16.31H93.2801V22.71L92.9201 22.33C93.1734 21.6767 93.5867 21.1833 94.1601 20.85C94.7467 20.5033 95.4267 20.33 96.2001 20.33C97.0001 20.33 97.7067 20.5033 98.3201 20.85C98.9467 21.1967 99.4334 21.6833 99.7801 22.31C100.127 22.9233 100.3 23.6367 100.3 24.45V31.45H97.6801V25.07C97.6801 24.59 97.5867 24.1767 97.4001 23.83C97.2134 23.4833 96.9534 23.2167 96.6201 23.03C96.3001 22.83 95.9201 22.73 95.4801 22.73C95.0534 22.73 94.6734 22.83 94.3401 23.03C94.0067 23.2167 93.7467 23.4833 93.5601 23.83C93.3734 24.1767 93.2801 24.59 93.2801 25.07V31.45H90.6601Z" fill="#EAEAEA"/>
<path d="M107.576 31.69C106.522 31.69 105.582 31.4433 104.756 30.95C103.929 30.4433 103.276 29.7567 102.796 28.89C102.316 28.0233 102.076 27.0633 102.076 26.01C102.076 24.9433 102.316 23.9833 102.796 23.13C103.276 22.2767 103.929 21.5967 104.756 21.09C105.596 20.5833 106.529 20.33 107.556 20.33C108.382 20.33 109.116 20.4967 109.756 20.83C110.409 21.15 110.922 21.6033 111.296 22.19L110.896 22.73V16.31H113.516V31.45H111.036V29.35L111.316 29.87C110.942 30.4567 110.422 30.91 109.756 31.23C109.089 31.5367 108.362 31.69 107.576 31.69ZM107.856 29.29C108.456 29.29 108.982 29.15 109.436 28.87C109.889 28.59 110.242 28.2033 110.496 27.71C110.762 27.2167 110.896 26.65 110.896 26.01C110.896 25.3833 110.762 24.8233 110.496 24.33C110.242 23.8233 109.889 23.43 109.436 23.15C108.982 22.87 108.456 22.73 107.856 22.73C107.269 22.73 106.742 22.8767 106.276 23.17C105.809 23.45 105.442 23.8367 105.176 24.33C104.922 24.81 104.796 25.37 104.796 26.01C104.796 26.65 104.922 27.2167 105.176 27.71C105.442 28.2033 105.809 28.59 106.276 28.87C106.742 29.15 107.269 29.29 107.856 29.29Z" fill="#EAEAEA"/>
</svg>
